<svg xmlns="http://www.w3.org/2000/svg" viewBox="0 0 120 120" role="img" aria-label="Sendwave">
  <rect width="120" height="120" rx="28" fill="#ffe500"/>
  <path fill="#4b0d1a" d="M91.2 30.4c-10.4-7-30.4-9.5-46.8-4.8-12.9 3.7-21.1 11.4-21.1 21 0 8.5 6.6 13.5 19.9 15.2l24.5 3.1c6.1.8 8.7 2 8.7 4.7 0 4.7-9.5 8.2-21.6 8.2-12.4 0-24.6-3.8-32.7-10.1v18.6c10.1 5.9 24.1 8.8 37.7 7.5 18.7-1.8 32.6-10.7 32.6-24.1 0-8.8-6.1-13.9-20.6-15.8l-24.7-3.2c-5.6-.7-7.5-1.9-7.5-4.4 0-4.2 7.5-7.1 18.6-7.1 12.7 0 24.1 3.6 33 9.8V30.4Z"/>
</svg>
